<svg id="Layer_1" data-name="Layer 1" xmlns="http://www.w3.org/2000/svg" viewBox="0 0 420.76 407.1"><defs><style>.cls-1{fill:#231f56;}</style></defs><title>git</title><path class="cls-1" d="M260.46,318.16c9.29-1.83,17.84-3.13,26.18-5.23,25.11-6.33,46.15-18.7,57.77-42.89,11.77-24.5,14.42-50.4,8.59-77-2.58-11.74-8.39-22.05-16.17-31.19-1.75-2.05-2.46-3.75-1.57-6.61,5.12-16.36,3.58-32.52-2-48.52-1-2.93-2.63-3.83-5.51-3.77-10,.22-19.37,3.28-28.23,7.61-7.46,3.64-14.5,8.15-21.9,11.93-2.11,1.08-5,1.83-7.24,1.3a205.22,205.22,0,0,0-98,0,9.9,9.9,0,0,1-6.79-1.16c-13.82-8.48-27.84-16.4-44.13-19.16-9.8-1.66-10.75-1.16-13.4,8.1-4.22,14.72-4.92,29.48-.35,44.31a5.9,5.9,0,0,1-.82,4.79c-18.83,21.77-22.3,47.36-18.46,74.63a133.52,133.52,0,0,0,5.15,22.84c10,30.41,32.33,47.06,62.3,54.74,8.49,2.17,17.19,3.53,26.3,5.36-6.87,7.36-10.5,16-12.34,25.44a4.93,4.93,0,0,1-2.74,3c-21.83,8.47-43.81,5.79-57.91-17.08-6.81-11.05-15.71-19.47-28.86-22.08a26.3,26.3,0,0,0-10.31.31c-3.82.81-4.38,3.2-1.78,6.21a22.18,22.18,0,0,0,5.25,4.58C84.79,325.39,92,335.46,96.8,347.24c8,19.68,23.41,28.4,43.51,29.67,9.35.59,18.83-.66,28.76-1.1,0,12.84.31,26.15-.12,39.44-.23,7-7.27,10.44-15.18,7.87a187.11,187.11,0,0,1-50-24.62C40.17,353.76,8,292.37,11.57,214.63,16,118,86.32,39.32,181.78,20.81a210.46,210.46,0,0,1,243.6,152.94c27.54,104.47-32.64,215.37-135.2,249.15-10.23,3.37-16.35-1-16.33-11.64,0-17,0-34,.18-51C274.18,344.91,271.95,330.34,260.46,318.16Z" transform="translate(-11.3 -16.92)"/><path class="cls-1" d="M147.19,353.4l4.52,4.33c-1.51,1-3,2.72-4.56,2.84-1.3.1-2.73-1.7-4.11-2.65Z" transform="translate(-11.3 -16.92)"/><path class="cls-1" d="M116.57,351.87a63.74,63.74,0,0,1-4.5-6.51c-.13-.24,2.38-2.41,2.63-2.23a19.37,19.37,0,0,1,4.54,4.42C119.51,347.92,118.06,349.52,116.57,351.87Z" transform="translate(-11.3 -16.92)"/><path class="cls-1" d="M130.39,359.24,126,354.45c1.21-.82,2.8-2.59,3.55-2.29,1.85.75,3.31,2.45,4.92,3.76Z" transform="translate(-11.3 -16.92)"/><path class="cls-1" d="M163.54,351.4l4.24,3.94c-1.61,1.17-3.1,2.83-4.89,3.3-1,.26-2.52-1.47-3.8-2.3Z" transform="translate(-11.3 -16.92)"/><path class="cls-1" d="M109.59,335.22c-1.61,1.42-3,2.91-3.2,2.77a17.7,17.7,0,0,1-4.18-4c-.22-.31,1.38-1.91,2.14-2.91Z" transform="translate(-11.3 -16.92)"/><path class="cls-1" d="M97.8,327.44c-1.68-2-3-3.11-3.69-4.54-.25-.49.94-1.7,1.48-2.58A36.49,36.49,0,0,1,99.66,324C99.88,324.3,98.8,325.66,97.8,327.44Z" transform="translate(-11.3 -16.92)"/></svg>