<svg id="Layer_1" data-name="Layer 1" xmlns="http://www.w3.org/2000/svg" viewBox="0 0 34.49 11.19"><defs><style>.cls-1{fill:#231f56;}</style></defs><title>iconcode</title><path class="cls-1" d="M2.79,28.7l2.95-1.6,3.18-1.72.18-.09c0,.07,0,.11,0,.15,0,.64,0,1.28,0,1.93a.19.19,0,0,1-.12.2L6.11,28.95l-1.26.6-.12.08,1.47.74L9,31.77a.22.22,0,0,1,.11.15c0,.67,0,1.35,0,2a.58.58,0,0,1,0,.08l-.45-.23L5,31.8,2.85,30.63l-.06,0Z" transform="translate(-2.79 -24.07)"/><path class="cls-1" d="M37.28,30.62,36.6,31l-4.31,2.35L31.13,34,31,34c0-.07,0-.11,0-.16,0-.63,0-1.26,0-1.89a.21.21,0,0,1,.14-.22L34.66,30l.71-.35-.88-.43L31.1,27.54a.24.24,0,0,1-.12-.16c0-.67,0-1.34,0-2a.76.76,0,0,1,0-.09l6.29,3.42Z" transform="translate(-2.79 -24.07)"/><path class="cls-1" d="M30.12,24.07l-.3.81-1.37,3.65-1.19,3.15-1,2.62c-.11.29-.21.58-.33.86a.16.16,0,0,1-.11.09H24.62l.25-.68,1.41-3.77,1.23-3.28,1.24-3.31a.19.19,0,0,1,.21-.15Z" transform="translate(-2.79 -24.07)"/><path class="cls-1" d="M10.51,32.45a.61.61,0,0,1,.6-.62.67.67,0,0,1,.59.35,1.31,1.31,0,0,0,1.2.74,1.29,1.29,0,0,0,1.27-1.46V26.22a.67.67,0,0,1,.65-.66.64.64,0,0,1,.65.66v5.25a2.62,2.62,0,0,1-.76,1.93,2.46,2.46,0,0,1-1.82.75,2.53,2.53,0,0,1-2.3-1.39A.94.94,0,0,1,10.51,32.45Z" transform="translate(-2.79 -24.07)"/><path class="cls-1" d="M18.56,34a.92.92,0,0,1-1-1V26.57a.91.91,0,0,1,1-1h1.93a3.5,3.5,0,0,1,3.85,3.54,9.39,9.39,0,0,1,0,1.31,4,4,0,0,1-1.08,2.61,3.74,3.74,0,0,1-2.78,1Zm4.51-4.76a2.27,2.27,0,0,0-2.57-2.4H18.87v5.89H20.5a2.28,2.28,0,0,0,2.55-2.36A7.36,7.36,0,0,0,23.07,29.26Z" transform="translate(-2.79 -24.07)"/></svg>