<svg id="Layer_1" data-name="Layer 1" xmlns="http://www.w3.org/2000/svg" viewBox="0 0 34.49 13.64"><defs><style>.cls-1,.cls-2{fill:#262626;}.cls-2{font-size:12px;font-family:RubrikMedium, Rubrik Medium;}</style></defs><title>iconcode</title><path class="cls-1" d="M2.79,28.7l2.95-1.6,3.18-1.72.18-.09c0,.07,0,.11,0,.15,0,.64,0,1.28,0,1.93a.19.19,0,0,1-.12.2L6.11,28.95l-1.26.6-.12.08,1.47.74L9,31.77a.22.22,0,0,1,.11.15c0,.67,0,1.35,0,2a.58.58,0,0,1,0,.08l-.45-.23L5,31.8,2.85,30.63l-.06,0Z" transform="translate(-2.79 -23.81)"/><path class="cls-1" d="M37.28,30.62,36.6,31l-4.31,2.35L31.13,34,31,34c0-.07,0-.11,0-.16,0-.63,0-1.26,0-1.89a.21.21,0,0,1,.14-.22L34.66,30l.71-.35-.88-.43L31.1,27.54a.24.24,0,0,1-.12-.16c0-.67,0-1.34,0-2a.76.76,0,0,1,0-.09l6.29,3.42Z" transform="translate(-2.79 -23.81)"/><path class="cls-1" d="M30.12,24.07l-.3.81-1.37,3.65-1.19,3.15-1,2.62c-.11.29-.21.58-.33.86a.16.16,0,0,1-.11.09H24.62l.25-.68,1.41-3.77,1.23-3.28,1.24-3.31a.19.19,0,0,1,.21-.15Z" transform="translate(-2.79 -23.81)"/><text class="cls-2" transform="translate(7.33 10.22)">JD</text></svg>