<svg xmlns="http://www.w3.org/2000/svg" viewBox="0 0 787.02 257.96"><defs><style>.cls-1{isolation:isolate;}.cls-2{opacity:0.75;mix-blend-mode:screen;}.cls-3{fill:#db504a;}.cls-4{fill:#231f56;}</style></defs><title>iconcode</title><g class="cls-1"><g id="Layer_1" data-name="Layer 1"><g class="cls-2"><path class="cls-3" d="M30.25,181l66.89-36.36q36.08-19.59,72.17-39.16c1.15-.63,2.37-1.15,4-1.93.13,1.49.28,2.43.28,3.36,0,14.58,0,29.16.06,43.73a4.24,4.24,0,0,1-2.81,4.53C149,165.53,127.3,176,105.55,186.51,96,191.09,86.48,195.64,77,200.23a25.71,25.71,0,0,0-2.79,1.89l33.36,16.69c21.15,10.57,42.32,21.1,63.43,31.76a5,5,0,0,1,2.51,3.45c.16,15.32.1,30.65.08,46a13.06,13.06,0,0,1-.39,1.81c-3.52-1.84-6.87-3.53-10.17-5.32Q121.53,273.91,80.1,251.3q-24.24-13.23-48.45-26.53a7.37,7.37,0,0,0-1.4-.44Q30.25,202.65,30.25,181Z" transform="translate(-26.25 -71.68)"/><path class="cls-3" d="M813.26,224.44c-5.17,2.65-10.41,5.2-15.51,8q-49,26.68-97.93,53.45c-8.73,4.77-17.42,9.62-26.14,14.42-.95.52-2,.93-3.41,1.61-.15-1.51-.33-2.55-.34-3.59,0-14.32.07-28.65-.07-43,0-2.66.91-3.94,3.22-5.07q40.37-19.82,80.64-39.84c5.12-2.53,10.21-5.12,16.05-8.06-7.1-3.47-13.53-6.6-19.95-9.76q-38.51-18.94-77-38c-1.26-.63-2.79-2.35-2.8-3.58-.18-15.19-.11-30.39-.09-45.59a17.22,17.22,0,0,1,.39-2l142.91,77.65Z" transform="translate(-26.25 -71.68)"/><path class="cls-3" d="M650.62,75.76c-2.4,6.46-4.57,12.38-6.78,18.28q-15.52,41.42-31.06,82.83-13.45,35.81-26.94,71.61-11.15,29.7-22.25,59.42c-2.44,6.52-4.85,13.06-7.44,19.53a3.68,3.68,0,0,1-2.47,2.11c-9.06.15-18.13.09-27.87.09,2-5.48,3.76-10.47,5.62-15.42q16-42.82,32.07-85.63l27.89-74.44Q605.47,116.58,619.51,79c.92-2.49,2.12-3.37,4.81-3.31C632.86,75.87,641.42,75.76,650.62,75.76Z" transform="translate(-26.25 -71.68)"/><path class="cls-3" d="M205.43,266.12c0-7.6,6-14.15,13.61-14.15,5.72,0,10.08,2.73,13.35,7.89,6.26,11.15,15.24,16.87,27.23,16.87,16.34,0,28.87-11.71,28.87-33.21v-119c0-7.89,6.81-15,14.7-15,8.44,0,14.7,6.52,14.7,15V243.8c0,17.72-5.72,32.42-17.15,43.86-11.16,11.42-25.05,17.14-41.39,17.14-23.14,0-43.29-12.79-52.28-31.57A21.43,21.43,0,0,1,205.43,266.12Z" transform="translate(-26.25 -71.68)"/><path class="cls-3" d="M388.21,301.8c-14.16,0-22.33-9.25-22.33-22.33v-147c0-13.06,8.17-22,22.33-22H432c54.74,0,84.43,31.31,87.42,80.31a213.23,213.23,0,0,1,.27,29.69c-1.64,24.79-9.8,44.39-24.5,59.35C480.8,294.46,459.56,301.8,432,301.8ZM490.6,193.71c-1.91-36.23-21.51-54.48-58.27-54.48h-37v133.7h37c37.29,0,56.09-19.87,58-53.63A167.15,167.15,0,0,0,490.6,193.71Z" transform="translate(-26.25 -71.68)"/></g><path class="cls-4" d="M26.25,177l66.89-36.36q36.08-19.59,72.17-39.16c1.15-.63,2.37-1.15,4-1.93.13,1.49.28,2.43.28,3.36,0,14.58,0,29.16.06,43.73a4.24,4.24,0,0,1-2.81,4.53C145,161.53,123.3,172,101.55,182.51,92,187.09,82.48,191.64,73,196.23a25.71,25.71,0,0,0-2.79,1.89l33.36,16.69c21.15,10.57,42.32,21.1,63.43,31.76a5,5,0,0,1,2.51,3.45c.16,15.32.1,30.65.08,46a13.06,13.06,0,0,1-.39,1.81c-3.52-1.84-6.87-3.53-10.17-5.32Q117.53,269.91,76.1,247.3q-24.24-13.23-48.45-26.53a7.37,7.37,0,0,0-1.4-.44Q26.25,198.65,26.25,177Z" transform="translate(-26.25 -71.68)"/><path class="cls-4" d="M809.26,220.44c-5.17,2.65-10.41,5.2-15.51,8q-49,26.68-97.93,53.45c-8.73,4.77-17.42,9.62-26.14,14.42-.95.52-2,.93-3.41,1.61-.15-1.51-.33-2.55-.34-3.59,0-14.32.07-28.65-.07-43,0-2.66.91-3.94,3.22-5.07q40.37-19.82,80.64-39.84c5.12-2.53,10.21-5.12,16.05-8.06-7.1-3.47-13.53-6.6-19.95-9.76q-38.51-18.94-77-38c-1.26-.63-2.79-2.35-2.8-3.58-.18-15.19-.11-30.39-.09-45.59a17.22,17.22,0,0,1,.39-2l142.91,77.65Z" transform="translate(-26.25 -71.68)"/><path class="cls-4" d="M646.62,71.76c-2.4,6.46-4.57,12.38-6.78,18.28q-15.52,41.42-31.06,82.83-13.45,35.81-26.94,71.61-11.15,29.7-22.25,59.42c-2.44,6.52-4.85,13.06-7.44,19.53a3.68,3.68,0,0,1-2.47,2.11c-9.06.15-18.13.09-27.87.09,2-5.48,3.76-10.47,5.62-15.42q16-42.82,32.07-85.63l27.89-74.44Q601.47,112.58,615.51,75c.92-2.49,2.12-3.37,4.81-3.31C628.86,71.87,637.42,71.76,646.62,71.76Z" transform="translate(-26.25 -71.68)"/><path class="cls-4" d="M201.43,262.12c0-7.6,6-14.15,13.61-14.15,5.72,0,10.08,2.73,13.35,7.89,6.26,11.15,15.24,16.87,27.23,16.87,16.34,0,28.87-11.71,28.87-33.21v-119c0-7.89,6.81-15,14.7-15,8.44,0,14.7,6.52,14.7,15V239.8c0,17.72-5.72,32.42-17.15,43.86-11.16,11.42-25.05,17.14-41.39,17.14-23.14,0-43.29-12.79-52.28-31.57A21.43,21.43,0,0,1,201.43,262.12Z" transform="translate(-26.25 -71.68)"/><path class="cls-4" d="M384.21,297.8c-14.16,0-22.33-9.25-22.33-22.33v-147c0-13.06,8.17-22,22.33-22H428c54.74,0,84.43,31.31,87.42,80.31a213.23,213.23,0,0,1,.27,29.69c-1.64,24.79-9.8,44.39-24.5,59.35C476.8,290.46,455.56,297.8,428,297.8ZM486.6,189.71c-1.91-36.23-21.51-54.48-58.27-54.48h-37v133.7h37c37.29,0,56.09-19.87,58-53.63A167.15,167.15,0,0,0,486.6,189.71Z" transform="translate(-26.25 -71.68)"/></g></g></svg>