<svg id="Layer_1" data-name="Layer 1" xmlns="http://www.w3.org/2000/svg" viewBox="0 0 456.34 456.8"><defs><style>.cls-1{fill:#231f56;}</style></defs><title>ig</title><path class="cls-1" d="M25.82,254.63c-30.81-.54-61.63-.83-92.43-1.71-26.6-.76-52.37-5.57-75.45-19.74-30.24-18.57-48.71-45.87-54.6-80.53-3.52-20.73-4.77-42-5.09-63.09-.69-45.14-.42-90.31.07-135.46.26-24,1.05-48,9-71,15.3-44.14,46.38-70.94,91.77-79.66,20.61-4,42-4.84,63.08-5.16,45.31-.69,90.64-.43,136,.07,23.78.26,47.66,1.06,70.54,9C213-177.42,240-146.29,248.63-100.64c3.91,20.62,4.81,42,5.13,63.08.69,45.14.42,90.31-.07,135.46-.26,24-1.05,48-9,71-15.3,44.15-46.37,71-91.77,79.68-20.61,4-42,4.38-63.08,5.21-21.3.83-42.65.18-64,.18Zm188-232.32-.93,0c0-18,.37-36-.11-54-.46-17.3-1.12-34.64-2.87-51.84C206-122.11,183-148.7,145-155.9c-20.29-3.84-41.36-4.37-62.11-4.76-38-.71-76-.62-114,0-19.6.3-39.4,1-58.72,4-33,5.12-55.52,24-64.64,56.76a134.11,134.11,0,0,0-4.88,32.47c-1,41.3-1.59,82.62-1.44,123.93.09,26.29.7,52.66,3,78.83,3.37,38.72,26.53,65.22,64.54,72.52,20.43,3.92,41.68,4.42,62.59,4.82,37.82.72,75.66.49,113.48.08,17.63-.2,35.3-1.16,52.84-2.89,16.26-1.6,31.47-6.92,44.54-17.31,21.19-16.85,29.37-40.07,30.62-65.83C212.51,91.94,212.86,57.11,213.78,22.31Z" transform="translate(202.17 202.18)"/><path class="cls-1" d="M25.64,143.16c-65.06,0-116.82-52.33-116.79-118,0-64.73,52.64-116.36,118.51-116.29,64.29.07,115.86,52.85,115.79,118.5C143.08,91.27,90.41,143.18,25.64,143.16ZM26.1,102c41.72-.09,76-34.45,75.91-76.12S67.52-50.14,25.9-50c-41.77.13-76,34.43-75.91,76.11S-15.54,102.1,26.1,102Z" transform="translate(202.17 202.18)"/><path class="cls-1" d="M148.26-123.14c15.39.13,27.06,12.27,26.88,28a27.47,27.47,0,0,1-27.6,27c-15.23-.27-27.65-12.95-27.35-27.94A27.47,27.47,0,0,1,148.26-123.14Z" transform="translate(202.17 202.18)"/></svg>